{"title":"Hell Baby 2013 WEBRip 480p x264 AAC - VYTO [P2PDL]","uid":8761431,"size":373033363,"categoryP":"video","categoryS":"movies","magnet":"?xt=urn:btih:04fa446fc5c4262a498e08e5cb9d163671bdaf88&amp;dn=Hell+Baby+2013+WEBRip+480p+x264+AAC+-+VYTO+%5BP2PDL%5D&amp;tr=udp%3A%2F%2Ftracker.openbittorrent.com%3A80&amp;tr=udp%3A%2F%2Fopen.demonii.com%3A1337&amp;tr=udp%3A%2F%2Ftracker.coppersurfer.tk%3A6969&amp;tr=udp%3A%2F%2Fexodus.desync.com%3A6969","seeders":1,"leechers":0,"uploader":"ValidusVyto","files":-1,"time":1375250633,"description":"_______ Visit us at our Semi Public Bittorrent Community ________\n  &lt;a href=&quot;\nhttp://p2pdl.com&quot; rel=&quot;nofollow&quot; target=&quot;_NEW&quot;&gt;\nhttp://p2pdl.com&lt;/a&gt;  _____________________________ &lt;a href=&quot; http://p2pdl.com&quot; rel=&quot;nofollow&quot; target=&quot;_NEW&quot;&gt; http://p2pdl.com&lt;/a&gt;\n\n\nHell Baby 2013 WEBRip 480p x264 AAC - VYTO\n\n\nGenre: Comedy | Horror \nPlot: An expectant couple who moves into the most haunted house in New Orleans call upon\nthe services of the Vatican's elite exorcism team to save them from a demonic baby. \nDirector: Robert Ben Garant, Thomas Lennon\nStars: Leslie Bibb, Rob Corddry, Thomas Lennon.\nRated: R for bloody violence, graphic nudity, sexual content, language and some drug use.\n\nInfo: &lt;a href=&quot;\nhttp://www.imdb.com/title/tt2318527/&quot; rel=&quot;nofollow&quot; target=&quot;_NEW&quot;&gt;\nhttp://www.imdb.com/title/tt2318527/&lt;/a&gt;\n\nTrailer:\n\n\nFormat : MPEG-4\nFile size : 351 MiB\nDuration : 1h 34mn\nOverall bit rate : 522 Kbps\nSource : 720p.WEB-DL.H264-fiend\n\nVideo\nFormat : AVC\nBit rate : 480 Kbps\nWidth : 720 pixels\nHeight : 400 pixels\nDisplay aspect ratio : 16:9\nFrame rate mode : Constant\nFrame rate : 23.976 fps\nStream size : 322 MiB (92%)\nWriting library : x264 core 130 r2273\n\nAudio\nFormat : AAC\nBit rate mode : Variable\nBit rate : 39.9 Kbps\nChannel(s) : 2 channels\nChannel positions : Front: L R\nSampling rate : 48.0 KHz\nStream size : 26.8 MiB (8%)\nLanguage : English\n\nSubtitle                       : Yes(English)\n &lt;a href=&quot;\nhttp://ultraimg.com/images/P9e0n.png&quot; rel=&quot;nofollow&quot; target=&quot;_NEW&quot;&gt;\nhttp://ultraimg.com/images/P9e0n.png&lt;/a&gt; &lt;a href=&quot;\nhttp://ultraimg.com/images/H2KO.png&quot; rel=&quot;nofollow&quot; target=&quot;_NEW&quot;&gt;\nhttp://ultraimg.com/images/H2KO.png&lt;/a&gt; &lt;a href=&quot;\nhttp://ultraimg.com/images/Dw9zN.png&quot; rel=&quot;nofollow&quot; target=&quot;_NEW&quot;&gt;\nhttp://ultraimg.com/images/Dw9zN.png&lt;/a&gt; &lt;a href=&quot;\nhttp://ultraimg.com/images/l1Uvn.png&quot; rel=&quot;nofollow&quot; target=&quot;_NEW&quot;&gt;\nhttp://ultraimg.com/images/l1Uvn.png&lt;/a&gt; &lt;a href=&quot;\nhttp://ultraimg.com/images/TYANF.png&quot; rel=&quot;nofollow&quot; target=&quot;_NEW&quot;&gt;\nhttp://ultraimg.com/images/TYANF.png&lt;/a&gt; &lt;a href=&quot;\nhttp://ultraimg.com/images/HSskv.png&quot; rel=&quot;nofollow&quot; target=&quot;_NEW&quot;&gt;\nhttp://ultraimg.com/images/HSskv.png&lt;/a&gt; &lt;a href=&quot;\nhttp://ultraimg.com/images/s1o04.png&quot; rel=&quot;nofollow&quot; target=&quot;_NEW&quot;&gt;\nhttp://ultraimg.com/images/s1o04.png&lt;/a&gt; &lt;a href=&quot;\nhttp://ultraimg.com/images/1V3MD.png&quot; rel=&quot;nofollow&quot; target=&quot;_NEW&quot;&gt;\nhttp://ultraimg.com/images/1V3MD.png&lt;/a&gt;\n\n\n----------------------------------------------------------------------------------------------------\n\n\nEncoded using revolutionary 10bit encoding, which enables us to provide you more crispier \nand sharper images at small sizes, just make sure you follow our instructions without a fault.\nRecommend to you to use latest version of VLC player. Install K-Lite Codec Pack or shark007 codecs\nin case of any kind of problem in playback (For non-VLC Media Player users). Alternatively, install\nCore AVC codecs, the fastest decoder that there is coupled with Community Center Codec Pack and play\non Windows Media Player Classic. Check sample to be sure.\nEnjoy!\n\nEncoder Notes:Looking For Early Access To Anything You Can Provide DVDScr, R5, DVDR, BluRay, Direct\nAudio, Music Releases and Seedboxes. We require dedicated servers, so as to do more \nand fast releases of movies.\nIf You Got anything to offer please contact us at &quot;&lt;a class=&quot;__cf_email__&quot; href=&quot;/cdn-cgi/l/email-protection&quot; data-cfemail=&quot;c2b2b0a582aab7b1aaeca1adaf&quot;&gt;[email&amp;#160;protected]&lt;/a&gt;&lt;script cf-hash='f9e31' type=&quot;text/javascript&quot;&gt;\n/* &lt;![CDATA[ */!function(){try{var t=&quot;currentScript&quot;in document?document.currentScript:function(){for(var t=document.getElementsByTagName(&quot;script&quot;),e=t.length;e--;)if(t[e].getAttribute(&quot;cf-hash&quot;))return t[e]}();if(t&amp;&amp;t.previousSibling){var e,r,n,i,c=t.previousSibling,a=c.getAttribute(&quot;data-cfemail&quot;);if(a){for(e=&quot;&quot;,r=parseInt(a.substr(0,2),16),n=2;a.length-n;n+=2)i=parseInt(a.substr(n,2),16)^r,e+=String.fromCharCode(i);e=document.createTextNode(e),c.parentNode.replaceChild(e,c)}}}catch(u){}}();/* ]]&gt; */&lt;/script&gt;&quot;.\n\nFace book Fan Page:  \nSearch P2PDL on FB, and hit Like!!!","torrent":{"xt":"urn:btih:04fa446fc5c4262a498e08e5cb9d163671bdaf88","amp;dn":"Hell+Baby+2013+WEBRip+480p+x264+AAC+-+VYTO+%5BP2PDL%5D","amp;tr":["udp%3A%2F%2Ftracker.openbittorrent.com%3A80","udp%3A%2F%2Fopen.demonii.com%3A1337","udp%3A%2F%2Ftracker.coppersurfer.tk%3A6969","udp%3A%2F%2Fexodus.desync.com%3A6969"],"infoHash":"04fa446fc5c4262a498e08e5cb9d163671bdaf88","infoHashBuffer":{"type":"Buffer","data":[4,250,68,111,197,196,38,42,73,142,8,229,203,157,22,54,113,189,175,136]},"announce":[],"urlList":[]}}